<svg width="186" height="256" viewBox="0 0 186 256" fill="none" xmlns="http://www.w3.org/2000/svg">
<path d="M92.519 255.347C143.616 255.347 185.039 213.926 185.039 162.828C185.039 111.731 143.616 70.3091 92.519 70.3091C41.4222 70.3091 0 111.731 0 162.828C0 213.926 41.4222 255.347 92.519 255.347Z" fill="#FFE81F"/>
<path d="M137.338 123.711C136.865 121.631 135.752 119.751 134.155 118.336C132.559 116.922 130.559 116.043 128.437 115.824C126.084 115.547 123.7 115.868 121.503 116.755C119.307 117.642 117.369 119.068 115.869 120.901C112.295 124.853 110.401 129.779 107.832 134.362C105.149 139.146 101.548 142.593 96.0029 143.62C84.7347 145.706 75.0316 137.737 67.5142 130.434C58.7609 121.94 50.8216 112.645 43.8005 102.671C37.0991 93.1388 30.3036 82.7788 27.9242 71.1941C26.7694 66.3176 27.0024 61.2151 28.597 56.4641C30.1917 51.7131 33.0842 47.5034 36.9473 44.3111C54.7083 29.6391 79.5593 35.7395 100.391 36.3606C112.64 36.7257 124.887 35.0942 135.341 28.2767C144.175 22.5157 150.882 13.5861 151.099 2.73361C151.166 -0.604968 145.98 -0.604726 145.913 2.73361C145.72 12.3746 139.135 20.0364 131.169 24.7658C121.517 30.4965 110.581 31.5417 99.5615 31.147C77.9414 30.3725 53.9945 25.1417 35.1611 39.1703C31.1892 42.0099 27.9354 45.7376 25.6585 50.0568C23.3818 54.3758 22.1449 59.1668 22.0464 64.0483C21.8779 75.6251 27.3397 86.6512 33.3231 96.2401C39.7454 106.521 47.0753 116.206 55.2253 125.179C62.9661 133.706 71.586 143.091 82.5918 147.276C87.9012 149.347 93.7347 149.663 99.237 148.177C102.053 147.278 104.661 145.824 106.906 143.901C109.152 141.978 110.989 139.624 112.31 136.979C115.04 132.11 116.965 126.067 121.624 122.606C124.947 120.138 131.497 119.95 132.337 125.089C132.874 128.375 137.872 126.981 137.338 123.711Z" fill="white"/>
<path d="M131.367 127.168C130.894 125.088 129.781 123.208 128.184 121.794C126.587 120.379 124.587 119.5 122.465 119.281C120.113 119.005 117.728 119.325 115.532 120.212C113.336 121.1 111.398 122.525 109.898 124.358C106.324 128.31 104.43 133.236 101.861 137.819C99.1779 142.604 95.5765 146.051 90.0318 147.077C78.7636 149.164 69.0605 141.194 61.5431 133.892C52.7897 125.397 44.8505 116.102 37.8293 106.129C31.128 96.5962 24.3324 86.2363 21.9531 74.6515C21.4745 72.6307 21.2343 70.5711 21.2305 68.5137C21.2252 65.6064 21.6921 62.7037 22.6259 59.9215C24.2206 55.1705 27.1131 50.9608 30.9762 47.7685C48.7371 33.0965 73.5882 39.1969 94.42 39.818C106.669 40.1831 118.916 38.5516 129.37 31.7341C138.204 25.9732 144.911 17.0435 145.128 6.19102C145.195 2.85245 140.009 2.85269 139.942 6.19102C139.749 15.832 133.164 23.4938 125.198 28.2232C115.546 33.9539 104.61 34.9991 93.5904 34.6044C71.9703 33.83 48.0233 28.5991 29.1899 42.6277C25.2181 45.4673 21.9643 49.1951 19.6874 53.5142C17.4107 57.8332 16.1738 62.6242 16.0753 67.5057C15.9067 79.0825 21.3686 90.1086 27.352 99.6975C33.7743 109.978 41.1042 119.663 49.2542 128.636C56.995 137.164 65.6149 146.548 76.6207 150.733C81.9301 152.804 87.7636 153.12 93.2659 151.634C96.0823 150.736 98.69 149.282 100.935 147.358C103.181 145.435 105.018 143.082 106.339 140.437C109.069 135.567 110.994 129.525 115.653 126.064C118.976 123.595 125.526 123.408 126.366 128.547C126.903 131.832 131.901 130.438 131.367 127.168Z" fill="black"/>
<path d="M92.2314 211.213L92.1346 207.756C98.5671 207.578 104.237 207.173 108.499 204.06C109.707 203.128 110.699 201.945 111.41 200.595C112.12 199.243 112.532 197.757 112.615 196.232C112.691 195.3 112.549 194.365 112.203 193.497C111.857 192.629 111.316 191.853 110.623 191.229C107.793 188.84 103.243 189.613 99.9259 191.134L97.0649 192.446L102.55 152.356L105.976 152.825L101.309 186.926C105.817 185.602 109.994 186.173 112.855 188.588C113.953 189.547 114.815 190.747 115.372 192.094C115.93 193.442 116.169 194.899 116.07 196.353C115.97 198.402 115.422 200.402 114.466 202.215C113.51 204.029 112.17 205.612 110.538 206.853C105.064 210.853 97.9483 211.052 92.2314 211.213Z" fill="black"/>
<path d="M148.786 152.356H130.166V155.813H148.786V152.356Z" fill="black"/>
<path d="M57.1646 152.356H38.5447V155.813H57.1646V152.356Z" fill="black"/>
</svg>
