<svg width="258" height="214" viewBox="0 0 258 214" fill="none" xmlns="http://www.w3.org/2000/svg">
<path d="M14 158C17.3137 158 20 155.314 20 152C20 148.686 17.3137 146 14 146C10.6863 146 8 148.686 8 152C8 155.314 10.6863 158 14 158Z" fill="#FFE81F"/>
<path d="M163 12C166.314 12 169 9.31371 169 6C169 2.68629 166.314 0 163 0C159.686 0 157 2.68629 157 6C157 9.31371 159.686 12 163 12Z" fill="#FFE81F"/>
<path d="M14 79C21.732 79 28 72.732 28 65C28 57.268 21.732 51 14 51C6.26801 51 0 57.268 0 65C0 72.732 6.26801 79 14 79Z" fill="#FFE81F"/>
<path d="M135.559 200.784C119.341 200.784 103.487 195.974 90.0023 186.964C76.5175 177.954 66.0074 165.147 59.801 150.164C53.5946 135.18 51.9707 118.693 55.1347 102.786C58.2987 86.8798 66.1084 72.2688 77.5763 60.8008C89.0442 49.3329 103.655 41.5232 119.562 38.3592C135.468 35.1952 151.956 36.8191 166.939 43.0255C181.923 49.2319 194.729 59.742 203.74 73.2268C212.75 86.7117 217.559 102.566 217.559 118.784C217.535 140.524 208.887 161.367 193.515 176.739C178.142 192.112 157.299 200.759 135.559 200.784Z" fill="#E6E6E6"/>
<path d="M121.559 94.7836C118.592 94.7836 115.692 93.9039 113.226 92.2557C110.759 90.6075 108.836 88.2648 107.701 85.5239C106.566 82.783 106.269 79.767 106.847 76.8573C107.426 73.9476 108.855 71.2748 110.952 69.177C113.05 67.0792 115.723 65.6506 118.633 65.0719C121.542 64.4931 124.558 64.7901 127.299 65.9254C130.04 67.0608 132.383 68.9833 134.031 71.4501C135.679 73.9168 136.559 76.8169 136.559 79.7836C136.555 83.7605 134.973 87.5733 132.161 90.3853C129.349 93.1974 125.536 94.7792 121.559 94.7836ZM121.559 66.7836C118.988 66.7836 116.475 67.5461 114.337 68.9745C112.199 70.403 110.533 72.4333 109.549 74.8087C108.565 77.1842 108.307 79.7981 108.809 82.3198C109.31 84.8416 110.549 87.1579 112.367 88.976C114.185 90.7941 116.501 92.0322 119.023 92.5338C121.545 93.0355 124.159 92.778 126.534 91.7941C128.909 90.8101 130.94 89.1439 132.368 87.006C133.797 84.8682 134.559 82.3548 134.559 79.7836C134.559 76.3358 133.189 73.0292 130.751 70.5913C128.314 68.1533 125.007 66.7836 121.559 66.7836Z" fill="#CCCCCC"/>
<path d="M93.5591 132.784C91.3835 132.784 89.2568 132.138 87.4478 130.93C85.6389 129.721 84.229 128.003 83.3964 125.993C82.5639 123.983 82.346 121.771 82.7704 119.638C83.1949 117.504 84.2425 115.544 85.7809 114.005C87.3193 112.467 89.2793 111.419 91.4131 110.995C93.5469 110.571 95.7586 110.788 97.7686 111.621C99.7786 112.454 101.497 113.863 102.705 115.672C103.914 117.481 104.559 119.608 104.559 121.784C104.556 124.7 103.396 127.496 101.334 129.558C99.2714 131.62 96.4755 132.78 93.5591 132.784ZM93.5591 112.784C91.779 112.784 90.039 113.311 88.559 114.3C87.0789 115.289 85.9253 116.695 85.2441 118.339C84.563 119.984 84.3847 121.794 84.732 123.539C85.0793 125.285 85.9365 126.889 87.1951 128.148C88.4538 129.406 90.0575 130.263 91.8033 130.611C93.5491 130.958 95.3587 130.78 97.0032 130.099C98.6478 129.417 100.053 128.264 101.042 126.784C102.031 125.304 102.559 123.564 102.559 121.784C102.559 119.397 101.611 117.108 99.923 115.42C98.2352 113.732 95.946 112.784 93.5591 112.784Z" fill="#CCCCCC"/>
<path d="M155.559 185.784C153.383 185.784 151.257 185.138 149.448 183.93C147.639 182.721 146.229 181.003 145.396 178.993C144.564 176.983 144.346 174.771 144.77 172.638C145.195 170.504 146.243 168.544 147.781 167.005C149.319 165.467 151.279 164.419 153.413 163.995C155.547 163.57 157.759 163.788 159.769 164.621C161.779 165.453 163.497 166.863 164.705 168.672C165.914 170.481 166.559 172.608 166.559 174.784C166.556 177.7 165.396 180.496 163.334 182.558C161.271 184.62 158.475 185.78 155.559 185.784ZM155.559 165.784C153.779 165.784 152.039 166.311 150.559 167.3C149.079 168.289 147.925 169.695 147.244 171.339C146.563 172.984 146.385 174.794 146.732 176.539C147.079 178.285 147.936 179.889 149.195 181.148C150.454 182.406 152.057 183.263 153.803 183.611C155.549 183.958 157.359 183.78 159.003 183.099C160.648 182.417 162.053 181.264 163.042 179.784C164.031 178.304 164.559 176.564 164.559 174.784C164.556 172.397 163.607 170.11 161.92 168.423C160.233 166.735 157.945 165.786 155.559 165.784Z" fill="#CCCCCC"/>
<path d="M135.559 151.784C67.1479 151.784 13.5591 137.289 13.5591 118.784C13.5591 108.001 29.4644 98.7353 58.3452 92.6933L58.7554 94.6513C31.3032 100.394 15.5591 109.19 15.5591 118.784C15.5591 135.587 70.5122 149.784 135.559 149.784C200.606 149.784 255.559 135.587 255.559 118.784C255.559 109.172 239.761 100.365 212.216 94.6205L212.625 92.6625C241.601 98.7055 257.559 107.982 257.559 118.784C257.559 137.289 203.97 151.784 135.559 151.784Z" fill="#CCCCCC"/>
<path d="M136 214C134.998 214 133.985 213.984 132.992 213.953L133.014 213.231C134.441 213.276 135.897 213.288 137.331 213.268L137.341 213.991C136.895 213.997 136.448 214 136 214ZM141.687 213.832L141.645 213.111C143.074 213.027 144.521 212.909 145.947 212.759L146.022 213.478C144.586 213.628 143.128 213.748 141.687 213.832ZM128.649 213.72C127.208 213.609 125.752 213.465 124.321 213.289L124.409 212.572C125.829 212.746 127.274 212.89 128.704 213L128.649 213.72ZM150.336 212.926L150.228 212.212C151.648 211.996 153.078 211.746 154.479 211.468L154.62 212.176C153.208 212.456 151.767 212.709 150.336 212.926ZM120.017 212.661C118.594 212.42 117.157 212.143 115.747 211.837L115.9 211.13C117.299 211.434 118.725 211.71 120.138 211.949L120.017 212.661ZM158.866 211.23L158.692 210.529C160.086 210.184 161.487 209.803 162.858 209.397L163.063 210.09C161.682 210.499 160.27 210.883 158.866 211.23ZM111.519 210.816C110.122 210.445 108.717 210.036 107.342 209.601L107.56 208.913C108.924 209.344 110.319 209.749 111.704 210.118L111.519 210.816ZM167.203 208.757L166.966 208.074C168.319 207.604 169.679 207.096 171.01 206.563L171.278 207.234C169.937 207.771 168.566 208.283 167.203 208.757ZM103.215 208.191C101.859 207.692 100.495 207.155 99.1598 206.592L99.4402 205.926C100.765 206.484 102.119 207.018 103.465 207.513L103.215 208.191ZM175.269 205.529L174.97 204.872C176.269 204.282 177.574 203.652 178.85 202.999L179.179 203.643C177.893 204.3 176.578 204.935 175.269 205.529ZM95.1834 204.809C93.8798 204.188 92.5713 203.527 91.2947 202.845L91.6351 202.208C92.9022 202.885 94.2005 203.541 95.4942 204.157L95.1834 204.809ZM182.998 201.578L182.641 200.951C183.886 200.24 185.13 199.493 186.336 198.73L186.722 199.34C185.506 200.109 184.254 200.863 182.998 201.578ZM87.5014 200.705C86.2615 199.967 85.0198 199.189 83.8111 198.393L84.2086 197.79C85.408 198.58 86.6401 199.352 87.8707 200.084L87.5014 200.705ZM190.339 196.934L189.926 196.342C191.099 195.523 192.269 194.664 193.405 193.792L193.845 194.364C192.701 195.244 191.522 196.108 190.339 196.934ZM80.2314 195.917C79.0654 195.07 77.9006 194.182 76.7691 193.279L77.2199 192.715C78.3427 193.611 79.4987 194.491 80.6557 195.332L80.2314 195.917ZM197.23 191.638L196.765 191.085C197.858 190.163 198.946 189.202 199.999 188.228L200.489 188.759C199.428 189.74 198.332 190.708 197.23 191.638ZM73.4314 190.487C72.3455 189.536 71.2666 188.547 70.2249 187.547L70.7251 187.026C71.759 188.018 72.8296 189 73.9073 189.944L73.4314 190.487ZM203.614 185.733L203.1 185.226C204.108 184.205 205.105 183.148 206.062 182.085L206.599 182.568C205.634 183.639 204.63 184.704 203.614 185.733ZM67.1563 184.465C66.16 183.417 65.176 182.334 64.2317 181.246L64.7774 180.773C65.7145 181.852 66.6909 182.927 67.6798 183.966L67.1563 184.465ZM209.437 179.27L208.879 178.812C209.789 177.704 210.686 176.56 211.544 175.413L212.123 175.845C211.258 177.002 210.355 178.154 209.437 179.27ZM61.4571 177.899C60.5624 176.768 59.6814 175.601 58.8385 174.429L59.4247 174.008C60.2613 175.17 61.1356 176.328 62.0236 177.451L61.4571 177.899ZM214.649 172.301L214.051 171.895C214.857 170.709 215.646 169.488 216.396 168.266L217.012 168.644C216.256 169.876 215.461 171.106 214.649 172.301ZM56.3816 170.846C55.5944 169.639 54.824 168.397 54.0915 167.154L54.7138 166.787C55.4408 168.021 56.2054 169.253 56.9865 170.45L56.3816 170.846ZM219.206 164.882L218.574 164.532C219.267 163.277 219.941 161.988 220.577 160.701L221.225 161.021C220.584 162.318 219.905 163.617 219.206 164.882ZM51.9731 163.363C51.2993 162.089 50.646 160.783 50.0314 159.48L50.6847 159.171C51.2948 160.464 51.9429 161.761 52.6116 163.025L51.9731 163.363ZM223.064 157.072L222.402 156.782C222.978 155.467 223.531 154.121 224.045 152.78L224.72 153.039C224.201 154.39 223.644 155.747 223.064 157.072ZM48.2703 155.513C47.7164 154.184 47.1861 152.824 46.694 151.471L47.373 151.224C47.8612 152.567 48.3875 153.916 48.937 155.235L48.2703 155.513ZM226.188 148.933L225.502 148.706C225.953 147.347 226.378 145.959 226.766 144.579L227.462 144.774C227.071 146.165 226.642 147.564 226.188 148.933ZM45.3024 147.35C44.8725 145.973 44.4686 144.567 44.102 143.169L44.8008 142.986C45.1646 144.373 45.5655 145.769 45.992 147.135L45.3024 147.35ZM228.542 140.561L227.839 140.397C228.162 139.005 228.458 137.583 228.718 136.172L229.428 136.302C229.166 137.725 228.868 139.157 228.542 140.561ZM43.0959 138.937C42.7947 137.526 42.522 136.089 42.2856 134.664L42.9982 134.546C43.233 135.96 43.5035 137.386 43.8024 138.787L43.0959 138.937ZM230.117 132.008L229.401 131.91C229.595 130.495 229.759 129.052 229.888 127.622L230.608 127.687C230.478 129.129 230.312 130.582 230.117 132.008ZM41.6722 130.359C41.5018 128.929 41.3619 127.472 41.2563 126.03L41.977 125.977C42.0816 127.409 42.2205 128.854 42.3897 130.273L41.6722 130.359ZM230.902 123.348L230.181 123.315C230.245 121.884 230.278 120.432 230.278 119H231C231 120.443 230.967 121.906 230.902 123.348ZM41.0374 121.686C41.0127 120.8 41.0002 119.896 41 119C41 118.444 41.0048 117.889 41.0143 117.335L41.7367 117.348C41.7272 117.898 41.7224 118.448 41.7224 119C41.7226 119.889 41.7351 120.786 41.7595 121.666L41.0374 121.686ZM230.272 117.992C230.257 116.56 230.209 115.108 230.13 113.677L230.851 113.637C230.931 115.079 230.979 116.542 230.995 117.984L230.272 117.992ZM41.9082 113.035L41.1872 112.99C41.2773 111.547 41.4018 110.089 41.5569 108.657L42.2751 108.734C42.1211 110.156 41.9978 111.602 41.9082 113.035ZM229.792 109.374C229.648 107.95 229.468 106.509 229.259 105.091L229.973 104.986C230.184 106.414 230.365 107.866 230.511 109.301L229.792 109.374ZM42.8375 104.455L42.1236 104.345C42.3449 102.916 42.6021 101.475 42.888 100.063L43.5959 100.206C43.3123 101.608 43.0571 103.037 42.8375 104.455ZM228.53 100.837C228.254 99.4282 227.943 98.0096 227.605 96.6211L228.307 96.4504C228.648 97.8494 228.961 99.2789 229.239 100.699L228.53 100.837ZM44.5487 95.9966L43.848 95.8209C44.1988 94.4217 44.5873 93.0109 45.0029 91.6274L45.6946 91.8352C45.2824 93.2081 44.8969 94.6082 44.5487 95.9966ZM226.488 92.4518C226.085 91.0763 225.645 89.6926 225.18 88.3387L225.863 88.1038C226.332 89.4681 226.775 90.8627 227.181 92.2486L226.488 92.4518ZM47.0356 87.7198L46.3541 87.4803C46.8342 86.1146 47.3526 84.7424 47.8948 83.4018L48.5646 83.6727C48.0265 85.0029 47.512 86.3647 47.0356 87.7198ZM223.683 84.2902C223.156 82.9607 222.591 81.6264 222.005 80.3242L222.664 80.0276C223.255 81.3398 223.823 82.6843 224.354 84.0239L223.683 84.2902ZM50.2781 79.7018L49.6216 79.4002C50.225 78.0862 50.8672 76.7685 51.5304 75.4838L52.1724 75.815C51.5141 77.0901 50.8769 78.3977 50.2781 79.7018ZM220.147 76.438C219.5 75.1626 218.815 73.8846 218.111 72.6399L218.739 72.284C219.45 73.5384 220.139 74.8261 220.791 76.1113L220.147 76.438ZM54.2432 72.0205L53.617 71.66C54.3377 70.4086 55.0977 69.156 55.876 67.9372L56.4849 68.326C55.7126 69.5355 54.9582 70.7786 54.2432 72.0205ZM215.903 68.9374C215.139 67.7222 214.34 66.5116 213.527 65.339L214.12 64.9274C214.94 66.1089 215.745 67.3287 216.514 68.5533L215.903 68.9374ZM58.8931 64.7388L58.3026 64.3226C59.1355 63.1414 60.0062 61.9641 60.8913 60.8233L61.462 61.266C60.5839 62.3983 59.7195 63.5666 58.8931 64.7388ZM210.988 61.8519C210.118 60.7117 209.211 59.5781 208.293 58.4828L208.847 58.0188C209.772 59.1225 210.685 60.2645 211.563 61.4135L210.988 61.8519ZM64.1862 57.915L63.6363 57.4466C64.5709 56.3488 65.545 55.2562 66.5315 54.199L67.0595 54.6918C66.0806 55.741 65.1139 56.8256 64.1862 57.915ZM205.447 55.2391C204.477 54.1828 203.47 53.1358 202.455 52.1276L202.965 51.6151C203.987 52.6312 205.001 53.6859 205.979 54.7502L205.447 55.2391ZM70.0757 51.6038L69.5706 51.0874C70.6036 50.0767 71.6726 49.0775 72.7476 48.1177L73.2288 48.6567C72.1619 49.6092 71.101 50.6007 70.0757 51.6038ZM199.326 49.1548C198.262 48.1902 197.164 47.2388 196.062 46.3272L196.523 45.7705C197.633 46.6891 198.739 47.6477 199.811 48.6197L199.326 49.1548ZM76.512 45.8563L76.0559 45.2961C77.1732 44.3862 78.3279 43.4888 79.4881 42.6288L79.9185 43.209C78.7669 44.0627 77.6209 44.9532 76.512 45.8563ZM192.673 43.6503C191.525 42.7863 190.344 41.9384 189.163 41.1305L189.571 40.5343C190.761 41.3483 191.951 42.2025 193.107 43.0732L192.673 43.6503ZM83.4409 40.7207L83.0377 40.1214C84.2335 39.3168 85.4646 38.5289 86.6969 37.7792L87.0723 38.3965C85.8495 39.1404 84.6277 39.9225 83.4409 40.7207ZM185.542 38.7734C184.321 38.0178 183.068 37.2812 181.816 36.5839L182.167 35.9528C183.429 36.6555 184.692 37.3978 185.922 38.1589L185.542 38.7734ZM90.8053 36.2412L90.4585 35.6073C91.7236 34.915 93.0209 34.2434 94.314 33.6107L94.6315 34.2598C93.3482 34.8875 92.0609 35.554 90.8053 36.2412ZM177.992 34.5674C176.707 33.9269 175.39 33.3082 174.078 32.7285L174.37 32.0678C175.692 32.6519 177.019 33.2754 178.315 33.9208L177.992 34.5674ZM98.5432 32.4563L98.2561 31.7935C99.5782 31.2204 100.931 30.6708 102.276 30.1599L102.532 30.8354C101.197 31.3423 99.8553 31.8877 98.5432 32.4563ZM170.083 31.0712C168.745 30.5525 167.376 30.0576 166.013 29.6004L166.243 28.9154C167.616 29.3763 168.996 29.8749 170.344 30.3978L170.083 31.0712ZM106.601 29.3964L106.376 28.7099C107.749 28.2598 109.15 27.836 110.54 27.4506L110.733 28.1466C109.354 28.5292 107.964 28.9496 106.601 29.3964ZM161.891 28.3222C160.513 27.9295 159.107 27.5637 157.714 27.2351L157.879 26.532C159.284 26.8631 160.7 27.2317 162.089 27.6273L161.891 28.3222ZM114.917 27.0885L114.756 26.3842C116.164 26.0627 117.598 25.7697 119.018 25.5136L119.146 26.2244C117.737 26.4788 116.314 26.7694 114.917 27.0885ZM153.491 26.3419C152.084 26.0779 150.651 25.8429 149.232 25.6436L149.332 24.9283C150.762 25.1291 152.206 25.3658 153.624 25.6318L153.491 26.3419ZM123.41 25.5558L123.315 24.8397C124.745 24.6489 126.199 24.4884 127.637 24.3631L127.7 25.0828C126.273 25.2073 124.83 25.3664 123.41 25.5558ZM144.945 25.1413C143.522 25.0073 142.073 24.9039 140.639 24.8346L140.675 24.1129C142.119 24.1829 143.579 24.287 145.012 24.4221L144.945 25.1413ZM132.008 24.8057L131.978 24.084C133.305 24.0286 134.658 24.0004 136 24L136.327 24.0005L136.325 24.723L136 24.7224C134.669 24.7228 133.325 24.7508 132.008 24.8057Z" fill="#E6E6E6"/>
<path d="M148.005 131.507H188.381C191.137 115.578 191.137 99.2948 188.381 83.366H148.005C152.554 99.0908 152.554 115.783 148.005 131.507Z" fill="#FFE81F"/>
<path d="M183.559 94.7836H156.559V97.7836H183.559V94.7836Z" fill="#F2F2F2"/>
<path d="M183.559 108.784H156.559V111.784H183.559V108.784Z" fill="#F2F2F2"/>
<path d="M183.559 101.784H156.559V104.784H183.559V101.784Z" fill="#F2F2F2"/>
</svg>
